<svg width="100" height="100" viewBox="0 0 100 100" fill="none" xmlns="http://www.w3.org/2000/svg">
<path d="M1.5 6.25C1.5 3.62665 3.62665 1.5 6.25 1.5H93.75C96.3734 1.5 98.5 3.62663 98.5 6.25V93.75C98.5 96.3735 96.3735 98.5 93.75 98.5H6.25C3.62663 98.5 1.5 96.3734 1.5 93.75V6.25Z" stroke="#FFAF37" stroke-width="3"/>
<path d="M69.7705 5.69207C70.4867 5.69759 70.8411 6.17641 70.8339 7.1285L70.7861 13.4179C70.7811 14.1321 70.5555 14.8994 70.11 15.7199C69.6478 16.5404 69.0978 17.177 68.4594 17.6299L61.6116 22.4111C59.9427 23.5519 58.6888 24.7049 57.8499 25.8704C56.9947 27.0357 56.5608 28.4423 56.5484 30.0901L56.5037 35.9951L68.3689 36.0866C69.0033 36.0915 69.5383 36.3519 69.9739 36.8681C70.3933 37.3657 70.6005 37.9715 70.595 38.6856L70.5561 43.849C70.5505 44.5631 70.3183 45.1747 69.8583 45.6839C69.3828 46.1929 68.8272 46.445 68.1928 46.4401L37.8467 46.206C37.2119 46.2011 36.6605 45.9405 36.1924 45.4242C35.7243 44.9079 35.4929 44.2927 35.4983 43.5786L35.5374 38.4153C35.5428 37.7011 35.7834 37.0988 36.2591 36.608C36.735 36.0989 37.2903 35.8469 37.9251 35.8518L49.6191 35.942L49.6638 30.0371C49.6759 28.4258 49.296 27.0129 48.5239 25.7984C47.752 24.5656 46.4994 23.3933 44.7662 22.2812L38.0603 17.9722C36.5052 16.9897 35.7258 15.6653 35.7222 13.999L35.7702 7.65463C35.7768 6.77575 36.1219 6.33894 36.8055 6.34419C37.1798 6.34713 37.6262 6.50619 38.1447 6.82144L47.6941 12.8553C49.0873 13.7267 50.2355 14.7061 51.1388 15.7934C52.0422 16.8624 52.6746 18.2589 53.0359 19.9829C53.2729 18.7762 53.9577 17.5455 55.0902 16.2908C56.2229 15.0178 57.4522 13.9011 58.7778 12.9408L68.5461 6.14956C69.0205 5.84193 69.4289 5.68943 69.7705 5.69207Z" fill="#FFAF37"/>
<path d="M12.4159 84.9731L18.5438 58.8257C20.204 51.7029 25.6077 48.1323 34.7548 48.114H47.9139C48.5162 48.114 49.0126 48.3704 49.4032 48.8831C49.8101 49.3957 50.0136 49.9909 50.0136 50.6683V84.9731C50.0136 85.6875 49.7857 86.2912 49.3299 86.7856C48.8742 87.2619 48.329 87.5 47.6942 87.5H43.1044C42.4371 87.5 41.8837 87.2619 41.4442 86.7856C41.0211 86.2912 40.8094 85.6687 40.8094 84.9181V77.9969H23.4511L21.8153 84.9181C21.6526 85.6687 21.2863 86.2912 20.7167 86.7856C20.147 87.2619 19.5448 87.5 18.9101 87.5H14.1005C13.4657 87.5 13.01 87.2987 12.7333 86.8956C12.4566 86.4744 12.3183 86.1081 12.3183 85.7969C12.3345 85.4856 12.3671 85.2112 12.4159 84.9731ZM25.2577 70.2237H40.8094V55.8868H33.8514C32.2889 55.8868 30.9218 56.3904 29.7499 57.3974C28.5943 58.3862 27.8131 59.7229 27.4062 61.4075L25.2577 70.2237Z" fill="#FFAF37"/>
<path d="M90.5383 86.3187C90.5383 87.1062 90.1233 87.5 89.2933 87.5H83.4339C82.815 87.5 82.1317 87.2525 81.3828 86.7581C80.6506 86.2456 80.0889 85.6325 79.6983 84.9181L75.5478 77.6125C73.8389 74.6094 71.7717 73.1081 69.3467 73.1081H63.39V84.9181C63.39 85.6325 63.1617 86.2456 62.7061 86.7581C62.2667 87.2525 61.7296 87.5 61.0948 87.5H56.505C55.8702 87.5 55.325 87.2525 54.8692 86.7581C54.4135 86.2456 54.1857 85.6325 54.1857 84.9181V50.7232C54.1857 50.0091 54.4054 49.3957 54.8448 48.8831C55.2843 48.3704 55.8214 48.114 56.4562 48.114H76.5978C80.325 48.114 83.3767 49.2401 85.7528 51.4923C88.1456 53.7445 89.3417 56.7841 89.3417 60.6109C89.3417 65.9394 86.2739 69.2812 80.1378 70.6362C81.1144 71.0387 82.0178 71.7344 82.8478 72.7231C83.6778 73.6937 84.63 75.1131 85.7044 76.9806L90.1478 84.9181C90.4078 85.4306 90.5383 85.8981 90.5383 86.3187ZM63.39 65.335H73.79C75.4667 65.335 76.9394 64.96 78.2089 64.2088C79.495 63.4581 80.1378 62.2589 80.1378 60.6109C80.1378 58.963 79.495 57.7637 78.2089 57.0129C76.9394 56.2622 75.4667 55.8868 73.79 55.8868H63.39V65.335Z" fill="#FFAF37"/>
</svg>
